<svg width="243" height="244" viewBox="0 0 243 244" fill="none" xmlns="http://www.w3.org/2000/svg">
<path d="M100.469 121.565C100.469 121.565 3.46875 22.0628 2.46873 21.0646C1.46871 20.0665 0.0787344 12.8211 2.46873 8.56465C4.82987 4.35957 12.9687 2.06465 12.9687 2.06465C12.9687 2.06465 20.4688 0.564189 22.4687 2.06465C24.4687 3.5651 120.969 99.5646 120.969 99.5646C120.969 99.5646 218.469 3.56648 219.969 2.06465C221.469 0.562815 226.592 0.729878 230.469 2.06465C235.691 3.8624 238.671 6.84259 240.469 12.0646C241.803 15.9418 241.969 21.5625 240.469 22.5646C238.969 23.5668 142.469 121.565 142.469 121.565C142.469 121.565 239.469 219.064 240.969 222.565C242.468 226.065 242.655 229.327 240.969 233.065C238.831 237.804 234.999 239.251 229.969 240.565C226.19 241.551 221.968 241.565 219.969 240.565C217.969 239.564 120.969 141.065 120.969 141.065C120.969 141.065 25.4684 240.065 22.9687 241.565C20.469 243.064 15.6804 243.124 11.4687 241.565C7.05872 239.932 4.39182 237.856 2.46873 233.565C0.552282 229.288 0.469009 225.564 2.46873 221.565C4.46845 217.565 100.469 121.565 100.469 121.565Z" fill="white" stroke="white"/>
</svg>
