<svg width="120" height="121" viewBox="0 0 120 121" fill="none" xmlns="http://www.w3.org/2000/svg">
<path fill-rule="evenodd" clip-rule="evenodd" d="M119.501 60.5005C119.364 27.7777 93.2234 1.13861 60.5005 1.00054C27.6399 0.861884 1.13801 27.6399 1.00052 60.5005C0.862447 93.4995 27.5015 120.64 60.5005 120.501C93.3623 120.362 119.638 93.3624 119.501 60.5005ZM80.0006 37C80.1405 26.2314 71.2702 17.5 60.5006 17.5C49.7311 17.5 40.8608 26.2314 41.0006 37C41.1387 47.6315 49.8683 56 60.5006 56C71.133 56 79.8626 47.6315 80.0006 37ZM22.5012 87.4996C21.5013 80.4993 48.0011 73.9996 48.0011 73.9996C48.0011 73.9996 62.8557 71.9483 72.0011 73.9996C82.9957 76.4657 97.0007 81.9993 97.501 87.4996C97.9582 92.5273 92.1409 96.3291 86.5623 99.9748C86.038 100.317 85.5157 100.659 85.001 101C79.589 104.583 75.8631 105.713 69.5011 107C62.037 108.509 57.401 108.798 50.0011 107C44.395 105.637 41.3626 104.106 36.5012 101C35.3121 100.24 34.116 99.5378 32.9503 98.8537C27.842 95.8557 23.3154 93.1992 22.5012 87.4996Z" fill="#666178"/>
<path d="M60.5005 1.00054L60.5026 0.500541L60.5005 1.00054ZM119.501 60.5005L120.001 60.4984L119.501 60.5005ZM1.00052 60.5005L1.50052 60.5026L1.00052 60.5005ZM60.5005 120.501L60.4984 120.001L60.5005 120.501ZM80.0006 37L80.5006 37.0065L80.0006 37ZM41.0006 37L41.5006 36.9935L41.0006 37ZM48.0011 73.9996L47.9327 73.5043L47.9071 73.5078L47.882 73.514L48.0011 73.9996ZM22.5012 87.4996L22.9962 87.4289L22.5012 87.4996ZM72.0011 73.9996L71.8916 74.4875L72.0011 73.9996ZM97.501 87.4996L97.003 87.5449L97.501 87.4996ZM86.5623 99.9748L86.2888 99.5563L86.5623 99.9748ZM85.001 101L85.2771 101.416V101.416L85.001 101ZM69.5011 107L69.6002 107.49L69.5011 107ZM50.0011 107L49.8831 107.485L50.0011 107ZM36.5012 101L36.7704 100.578L36.5012 101ZM32.9503 98.8537L32.6972 99.2849L32.9503 98.8537ZM60.4984 1.50053C92.9413 1.63742 118.865 28.0488 119.001 60.5026L120.001 60.4984C119.862 27.5065 93.5054 0.639793 60.5026 0.500541L60.4984 1.50053ZM1.50052 60.5026C1.63688 27.9126 27.9194 1.36307 60.4984 1.50053L60.5026 0.500541C27.3604 0.3607 0.63915 27.3671 0.500524 60.4984L1.50052 60.5026ZM60.4984 120.001C27.7826 120.139 1.36358 93.2294 1.50052 60.5026L0.500524 60.4984C0.361312 93.7697 27.2204 121.141 60.5026 121.001L60.4984 120.001ZM119.001 60.5026C119.137 93.0938 93.0786 119.863 60.4984 120.001L60.5026 121.001C93.646 120.861 120.139 93.6309 120.001 60.4984L119.001 60.5026ZM60.5006 18C71 18 79.6368 26.512 79.5007 36.9935L80.5006 37.0065C80.6442 25.9507 71.5403 17 60.5006 17V18ZM41.5006 36.9935C41.3645 26.512 50.0012 18 60.5006 18V17C49.4609 17 40.3571 25.9507 40.5007 37.0065L41.5006 36.9935ZM60.5006 55.5C50.1334 55.5 41.635 47.343 41.5006 36.9935L40.5007 37.0065C40.6424 47.9199 49.6031 56.5 60.5006 56.5V55.5ZM79.5007 36.9935C79.3663 47.343 70.8679 55.5 60.5006 55.5V56.5C71.3982 56.5 80.3589 47.9199 80.5006 37.0065L79.5007 36.9935ZM48.0011 73.9996C47.882 73.514 47.8819 73.514 47.8816 73.5141C47.8814 73.5141 47.881 73.5142 47.8806 73.5143C47.8797 73.5145 47.8784 73.5149 47.8767 73.5153C47.8733 73.5161 47.8684 73.5173 47.8618 73.519C47.8488 73.5222 47.8294 73.527 47.804 73.5333C47.7532 73.546 47.6782 73.5649 47.5805 73.5897C47.3852 73.6394 47.0994 73.7131 46.7364 73.8092C46.0104 74.0015 44.9752 74.2838 43.7364 74.6445C41.2599 75.3655 37.9643 76.4011 34.6967 77.6578C31.4355 78.9121 28.1742 80.3972 25.7826 82.0235C24.5876 82.8361 23.5839 83.7011 22.9083 84.6118C22.2302 85.5257 21.8567 86.5232 22.0062 87.5703L22.9962 87.4289C22.8958 86.7259 23.1317 85.989 23.7114 85.2076C24.2935 84.4229 25.1962 83.6316 26.3449 82.8504C28.6407 81.2893 31.8169 79.8368 35.0557 78.5912C38.2881 77.3479 41.5549 76.3211 44.0159 75.6046C45.2458 75.2466 46.2731 74.9664 46.9924 74.7759C47.3521 74.6806 47.6347 74.6078 47.8271 74.5589C47.9232 74.5344 47.9969 74.5159 48.0463 74.5035C48.071 74.4974 48.0896 74.4927 48.102 74.4897C48.1082 74.4881 48.1129 74.487 48.1159 74.4863C48.1174 74.4859 48.1186 74.4856 48.1193 74.4854C48.1196 74.4853 48.1199 74.4853 48.1201 74.4852C48.1202 74.4852 48.1202 74.4852 48.0011 73.9996ZM72.1105 73.5117C67.4673 72.4702 61.4097 72.4742 56.5452 72.731C54.1064 72.8598 51.955 73.0529 50.4132 73.2138C49.6421 73.2943 49.0231 73.3668 48.5963 73.4192C48.3829 73.4454 48.2176 73.4666 48.1053 73.4813C48.0492 73.4886 48.0063 73.4943 47.9774 73.4982C47.9629 73.5002 47.9519 73.5017 47.9444 73.5027C47.9407 73.5032 47.9378 73.5036 47.9359 73.5039C47.9349 73.504 47.9342 73.5041 47.9336 73.5042C47.9334 73.5042 47.9332 73.5042 47.933 73.5042C47.9329 73.5043 47.9327 73.5043 48.0011 73.9996C48.0695 74.4949 48.0695 74.4949 48.0696 74.4949C48.0697 74.4949 48.0698 74.4948 48.07 74.4948C48.0704 74.4948 48.071 74.4947 48.0718 74.4946C48.0735 74.4943 48.076 74.494 48.0795 74.4935C48.0864 74.4926 48.0968 74.4912 48.1107 74.4893C48.1385 74.4856 48.1801 74.48 48.235 74.4728C48.3448 74.4585 48.5076 74.4376 48.7182 74.4117C49.1396 74.36 49.7525 74.2882 50.517 74.2084C52.0461 74.0488 54.18 73.8573 56.598 73.7296C61.4472 73.4736 67.3895 73.4776 71.8916 74.4875L72.1105 73.5117ZM97.9989 87.4543C97.856 85.8822 96.7639 84.3948 95.1768 83.0367C93.5758 81.6667 91.3921 80.3604 88.9035 79.1613C83.9229 76.7617 77.635 74.7508 72.1105 73.5117L71.8916 74.4875C77.3618 75.7144 83.5737 77.7035 88.4694 80.0622C90.9188 81.2424 93.0174 82.5049 94.5266 83.7965C96.0498 85.0999 96.8959 86.3668 97.003 87.5449L97.9989 87.4543ZM86.8359 100.393C89.6139 98.5778 92.5075 96.689 94.6435 94.6141C96.7783 92.5403 98.248 90.1926 97.9989 87.4543L97.003 87.5449C97.2113 89.8343 96.0009 91.9013 93.9467 93.8968C91.8937 95.8911 89.0893 97.7261 86.2888 99.5563L86.8359 100.393ZM85.2771 101.416C85.7903 101.077 86.3113 100.736 86.8359 100.393L86.2888 99.5563C85.7647 99.8988 85.2412 100.241 84.725 100.583L85.2771 101.416ZM69.6002 107.49C75.9983 106.196 79.7924 105.048 85.2771 101.416L84.725 100.583C79.3857 104.118 75.7278 105.23 69.402 106.509L69.6002 107.49ZM49.8831 107.485C57.3735 109.306 62.0868 109.009 69.6002 107.49L69.402 106.509C61.9873 108.009 57.4285 108.29 50.1192 106.514L49.8831 107.485ZM36.2319 101.421C41.1252 104.548 44.2087 106.107 49.8831 107.485L50.1192 106.514C44.5812 105.168 41.6 103.665 36.7704 100.578L36.2319 101.421ZM32.6972 99.2849C33.8642 99.9697 35.0521 100.667 36.2319 101.421L36.7704 100.578C35.572 99.8125 34.3679 99.1059 33.2034 98.4224L32.6972 99.2849ZM22.0062 87.5703C22.8599 93.5468 27.6358 96.3145 32.6972 99.2849L33.2034 98.4224C28.0481 95.3969 23.7708 92.8516 22.9962 87.4289L22.0062 87.5703Z" fill="#666178"/>
</svg>
