<svg width="21" height="13" viewBox="0 0 21 13" fill="none" xmlns="http://www.w3.org/2000/svg">
<circle cx="1.5" cy="1.5" r="1.5" fill="#666178"/>
<ellipse cx="1.50439" cy="6.50098" rx="1.50177" ry="1.49822" transform="rotate(0.105095 1.50439 6.50098)" fill="#666178"/>
<circle cx="1.5" cy="11.5" r="1.5" fill="#666178"/>
<path d="M6.3818 2C5.87276 2 5.87271 1 6.3818 1H19.6182C20.1273 1 20.1273 2 19.6182 2H6.3818Z" stroke="#666178"/>
<path d="M6.3818 7C5.87276 7 5.87271 6 6.3818 6H19.6182C20.1273 6 20.1273 7 19.6182 7H6.3818Z" stroke="#666178"/>
<path d="M6.3818 12C5.87276 12 5.87271 11 6.3818 11H19.6182C20.1273 11 20.1273 12 19.6182 12H6.3818Z" stroke="#666178"/>
</svg>
