<svg width="9" height="9" viewBox="0 0 9 9" fill="none" xmlns="http://www.w3.org/2000/svg">
<path d="M3.91 1.07C3.91 0.743333 4.07333 0.579999 4.4 0.579999C4.72667 0.579999 4.89 0.743333 4.89 1.07V8.37C4.89 8.69667 4.72667 8.86 4.4 8.86C4.07333 8.86 3.91 8.69667 3.91 8.37V1.07ZM0.96 4.95C0.633333 4.95 0.47 4.78667 0.47 4.46C0.47 4.13333 0.633333 3.97 0.96 3.97H8.26C8.58667 3.97 8.75 4.13333 8.75 4.46C8.75 4.78667 8.58667 4.95 8.26 4.95H0.96ZM0.96 4.95C0.633333 4.95 0.47 4.78667 0.47 4.46C0.47 4.13333 0.633333 3.97 0.96 3.97H8.26C8.58667 3.97 8.75 4.13333 8.75 4.46C8.75 4.78667 8.58667 4.95 8.26 4.95H0.96Z" fill="#9390A1"/>
</svg>
