<svg width="127" height="128" viewBox="0 0 127 128" fill="none" xmlns="http://www.w3.org/2000/svg">
<mask id="path-1-outside-1_646_5" maskUnits="userSpaceOnUse" x="0" y="0.222656" width="127" height="127" fill="black">
<rect fill="white" y="0.222656" width="127" height="127"/>
<path d="M52.65 9.27265C52.65 4.37265 55.1 1.92265 60 1.92265C64.9 1.92265 67.35 4.37265 67.35 9.27265V118.773C67.35 123.673 64.9 126.123 60 126.123C55.1 126.123 52.65 123.673 52.65 118.773V9.27265ZM8.4 67.4727C3.5 67.4727 1.05 65.0227 1.05 60.1226C1.05 55.2227 3.5 52.7727 8.4 52.7727H117.9C122.8 52.7727 125.25 55.2227 125.25 60.1226C125.25 65.0227 122.8 67.4727 117.9 67.4727H8.4ZM8.4 67.4727C3.5 67.4727 1.05 65.0227 1.05 60.1226C1.05 55.2227 3.5 52.7727 8.4 52.7727H117.9C122.8 52.7727 125.25 55.2227 125.25 60.1226C125.25 65.0227 122.8 67.4727 117.9 67.4727H8.4Z"/>
</mask>
<path d="M52.65 9.27265C52.65 4.37265 55.1 1.92265 60 1.92265C64.9 1.92265 67.35 4.37265 67.35 9.27265V118.773C67.35 123.673 64.9 126.123 60 126.123C55.1 126.123 52.65 123.673 52.65 118.773V9.27265ZM8.4 67.4727C3.5 67.4727 1.05 65.0227 1.05 60.1226C1.05 55.2227 3.5 52.7727 8.4 52.7727H117.9C122.8 52.7727 125.25 55.2227 125.25 60.1226C125.25 65.0227 122.8 67.4727 117.9 67.4727H8.4ZM8.4 67.4727C3.5 67.4727 1.05 65.0227 1.05 60.1226C1.05 55.2227 3.5 52.7727 8.4 52.7727H117.9C122.8 52.7727 125.25 55.2227 125.25 60.1226C125.25 65.0227 122.8 67.4727 117.9 67.4727H8.4Z" fill="#9390A1"/>
<path d="M52.65 9.27265H53.65C53.65 6.9768 54.2233 5.43858 55.1946 4.46726C56.1659 3.49593 57.7041 2.92265 60 2.92265V1.92265V0.922648C57.3959 0.922648 55.2591 1.57436 53.7804 3.05304C52.3017 4.53172 51.65 6.66851 51.65 9.27265H52.65ZM60 1.92265V2.92265C62.2959 2.92265 63.8341 3.49593 64.8054 4.46726C65.7767 5.43858 66.35 6.9768 66.35 9.27265H67.35H68.35C68.35 6.66851 67.6983 4.53172 66.2196 3.05304C64.7409 1.57436 62.6041 0.922648 60 0.922648V1.92265ZM67.35 9.27265H66.35V118.773H67.35H68.35V9.27265H67.35ZM67.35 118.773H66.35C66.35 121.069 65.7767 122.607 64.8054 123.578C63.8341 124.549 62.2959 125.123 60 125.123V126.123V127.123C62.6041 127.123 64.7409 126.471 66.2196 124.992C67.6983 123.514 68.35 121.377 68.35 118.773H67.35ZM60 126.123V125.123C57.7041 125.123 56.1659 124.549 55.1946 123.578C54.2233 122.607 53.65 121.069 53.65 118.773H52.65H51.65C51.65 121.377 52.3017 123.514 53.7804 124.992C55.2591 126.471 57.3959 127.123 60 127.123V126.123ZM52.65 118.773H53.65V9.27265H52.65H51.65V118.773H52.65ZM8.4 67.4727V66.4727C6.10415 66.4727 4.56593 65.8994 3.59461 64.928C2.62329 63.9567 2.05 62.4185 2.05 60.1226H1.05H0.05C0.05 62.7268 0.701714 64.8636 2.18039 66.3423C3.65907 67.8209 5.79586 68.4727 8.4 68.4727V67.4727ZM1.05 60.1226H2.05C2.05 57.8268 2.62329 56.2886 3.59461 55.3173C4.56593 54.3459 6.10415 53.7727 8.4 53.7727V52.7727V51.7727C5.79586 51.7727 3.65907 52.4244 2.18039 53.903C0.701714 55.3817 0.05 57.5185 0.05 60.1226H1.05ZM8.4 52.7727V53.7727H117.9V52.7727V51.7727H8.4V52.7727ZM117.9 52.7727V53.7727C120.196 53.7727 121.734 54.3459 122.705 55.3173C123.677 56.2886 124.25 57.8268 124.25 60.1226H125.25H126.25C126.25 57.5185 125.598 55.3817 124.12 53.903C122.641 52.4244 120.504 51.7727 117.9 51.7727V52.7727ZM125.25 60.1226H124.25C124.25 62.4185 123.677 63.9567 122.705 64.928C121.734 65.8994 120.196 66.4727 117.9 66.4727V67.4727V68.4727C120.504 68.4727 122.641 67.8209 124.12 66.3423C125.598 64.8636 126.25 62.7268 126.25 60.1226H125.25ZM117.9 67.4727V66.4727H8.4V67.4727V68.4727H117.9V67.4727ZM8.4 67.4727V66.4727C6.10415 66.4727 4.56593 65.8994 3.59461 64.928C2.62329 63.9567 2.05 62.4185 2.05 60.1226H1.05H0.05C0.05 62.7268 0.701714 64.8636 2.18039 66.3423C3.65907 67.8209 5.79586 68.4727 8.4 68.4727V67.4727ZM1.05 60.1226H2.05C2.05 57.8268 2.62329 56.2886 3.59461 55.3173C4.56593 54.3459 6.10415 53.7727 8.4 53.7727V52.7727V51.7727C5.79586 51.7727 3.65907 52.4244 2.18039 53.903C0.701714 55.3817 0.05 57.5185 0.05 60.1226H1.05ZM8.4 52.7727V53.7727H117.9V52.7727V51.7727H8.4V52.7727ZM117.9 52.7727V53.7727C120.196 53.7727 121.734 54.3459 122.705 55.3173C123.677 56.2886 124.25 57.8268 124.25 60.1226H125.25H126.25C126.25 57.5185 125.598 55.3817 124.12 53.903C122.641 52.4244 120.504 51.7727 117.9 51.7727V52.7727ZM125.25 60.1226H124.25C124.25 62.4185 123.677 63.9567 122.705 64.928C121.734 65.8994 120.196 66.4727 117.9 66.4727V67.4727V68.4727C120.504 68.4727 122.641 67.8209 124.12 66.3423C125.598 64.8636 126.25 62.7268 126.25 60.1226H125.25ZM117.9 67.4727V66.4727H8.4V67.4727V68.4727H117.9V67.4727Z" fill="#9390A1" mask="url(#path-1-outside-1_646_5)"/>
</svg>
